<svg width="166" height="28" viewBox="0 0 166 28" fill="none" xmlns="http://www.w3.org/2000/svg">
<path d="M16.4546 27.8646H6.99463L10.1479 21.1816H16.4546C18.4612 21.1816 20.0665 19.5958 20.0665 17.6702C20.0665 15.7446 18.4612 14.1588 16.4546 14.1588H13.4733L13.5306 13.9889L10.4919 7.41919H16.5119C22.3025 7.41919 27.0038 12.0067 27.0038 17.6702C27.0038 23.3338 22.2452 27.8646 16.4546 27.8646Z" fill="white"/>
<path d="M14.0466 14.1023L10.7213 21.1251L7.56795 27.8647H0.687995H0L0.687995 26.3922L6.53595 13.989L3.49731 7.41926L0 0H7.56795L11.0653 7.41926L14.1039 13.9324L14.0466 14.1023Z" fill="#F5AF15"/>
<path d="M35.6535 6.01636H45.1429C47.0609 6.01636 48.4743 6.46511 49.4333 7.36262C50.3923 8.26012 50.8466 9.55652 50.8466 11.202C50.8466 12.249 50.6447 13.0967 50.2409 13.7947C49.8371 14.4928 49.2314 15.0413 48.5247 15.4402C49.5342 15.7393 50.2914 16.1881 50.8466 16.8862C51.4018 17.5842 51.6542 18.5316 51.6542 19.7781C51.6542 21.6729 51.1495 23.069 50.0895 23.9665C49.08 24.9139 47.5657 25.3626 45.5467 25.3626H35.6535V6.01636ZM44.6886 14.2934C46.7581 14.2934 47.8181 13.346 47.8181 11.4513C47.8181 10.4042 47.5657 9.65624 47.061 9.15763C46.5562 8.70888 45.6476 8.45957 44.3353 8.45957H38.9849V14.2934H44.6886ZM44.8905 23.0191C46.1019 23.0191 46.96 22.7698 47.5152 22.2712C48.0705 21.7726 48.3228 20.9249 48.3228 19.7283C48.3228 18.6812 48.02 17.9332 47.4648 17.4845C46.9095 16.9859 45.9505 16.7366 44.5372 16.7366H38.9849V23.0191H44.8905Z" fill="white"/>
<path d="M55.7427 24.6149C54.7837 23.8669 54.2789 22.77 54.2789 21.3739C54.2789 19.9777 54.7837 18.8309 55.7427 18.0331C56.7018 17.2354 58.1655 16.7866 60.0836 16.7866H64.7273V16.1384C64.7273 15.4403 64.6264 14.8919 64.4245 14.493C64.2226 14.0941 63.8188 13.7949 63.2636 13.6453C62.7083 13.4459 61.9007 13.396 60.8407 13.396C59.1246 13.396 57.5094 13.6453 56.0456 14.1439V11.7007C56.7522 11.4514 57.5598 11.252 58.4684 11.0525C59.4274 10.9029 60.3865 10.8032 61.4464 10.8032C63.6169 10.8032 65.2321 11.252 66.3426 12.0996C67.453 12.9473 67.9578 14.3434 67.9578 16.1883V25.4126H65.1311L64.9292 23.9667C64.3235 24.565 63.5664 24.9639 62.7083 25.263C61.8502 25.5622 60.7398 25.7118 59.4779 25.7118C57.9636 25.7617 56.7522 25.3628 55.7427 24.6149ZM62.8597 22.9196C63.6169 22.6204 64.2226 22.1218 64.7273 21.5733V19.0802H60.1341C59.175 19.0802 58.4684 19.2797 58.0141 19.6287C57.5598 19.9777 57.3579 20.5761 57.3579 21.324C57.3579 22.0719 57.6103 22.5705 58.1151 22.9196C58.6198 23.2686 59.3265 23.4182 60.336 23.4182C61.2445 23.4182 62.1026 23.2187 62.8597 22.9196Z" fill="white"/>
<path d="M71.592 5.1189H74.9234V16.8862L80.9804 11.1521H84.8166L78.9614 16.8862L85.1699 25.4125H81.6366L76.8414 18.6314L74.9234 20.4264V25.4125H71.592V5.1189Z" fill="white"/>
<path d="M88.9051 24.3156C87.9965 23.3682 87.4918 21.9721 87.4918 20.1771V11.1522H90.8231V20.1771C90.8231 21.2242 91.0755 22.022 91.6307 22.5206C92.1355 23.0192 92.9936 23.2685 94.0536 23.2685C94.8612 23.2685 95.5678 23.1189 96.2745 22.8197C96.9811 22.5206 97.5868 22.1217 98.0916 21.5732V11.1023H101.372V25.4125H98.344L98.1926 23.9167C96.6783 25.1134 94.8612 25.7117 92.8422 25.7117C91.126 25.7616 89.8136 25.263 88.9051 24.3156Z" fill="white"/>
<path d="M105.31 6.01636H113.285C116.212 6.01636 118.383 6.81414 119.796 8.35985C121.159 9.90555 121.866 12.3986 121.866 15.8889C121.866 19.2296 121.159 21.623 119.796 23.1687C118.433 24.7144 116.263 25.4623 113.285 25.4623H105.31V6.01636ZM112.729 22.9194C114.092 22.9194 115.203 22.72 116.01 22.3211C116.818 21.9222 117.474 21.2241 117.878 20.177C118.282 19.1299 118.484 17.6839 118.484 15.8391C118.484 13.9443 118.282 12.4983 117.928 11.4513C117.525 10.4042 116.919 9.65625 116.111 9.25735C115.304 8.8086 114.143 8.60915 112.729 8.60915H108.59V22.9194H112.729Z" fill="white"/>
<path d="M125.651 23.8669C124.288 22.6204 123.582 20.7257 123.582 18.2326C123.582 15.8891 124.187 14.0442 125.399 12.7478C126.61 11.4514 128.377 10.8032 130.749 10.8032C132.869 10.8032 134.535 11.3517 135.645 12.4487C136.806 13.5456 137.361 15.0414 137.361 16.8863V19.529H126.762C126.913 20.8752 127.418 21.8226 128.276 22.3711C129.134 22.9196 130.446 23.1689 132.213 23.1689C132.97 23.1689 133.677 23.119 134.434 22.9694C135.191 22.8198 135.898 22.6703 136.453 22.4209V24.8143C135.191 25.3628 133.525 25.6619 131.506 25.6619C128.983 25.7617 127.014 25.1135 125.651 23.8669ZM134.434 17.4348V16.4376C134.434 15.3905 134.131 14.6426 133.576 14.0941C133.021 13.5456 132.112 13.2963 130.85 13.2963C129.336 13.2963 128.276 13.5955 127.67 14.2437C127.064 14.8919 126.762 15.939 126.762 17.4348H134.434Z" fill="white"/>
<path d="M138.472 11.1521H141.904L145.942 22.2712L149.98 11.1521H153.413L147.709 25.4623H144.125L138.472 11.1521Z" fill="white"/>
<path d="M156.895 25.5622C155.987 25.4126 155.23 25.263 154.624 25.0137V22.2214C155.28 22.4708 156.037 22.6702 156.845 22.8198C157.653 22.9694 158.46 23.0192 159.268 23.0192C160.429 23.0192 161.287 22.9195 161.741 22.7201C162.195 22.5206 162.448 22.1217 162.448 21.5234C162.448 21.0248 162.246 20.6259 161.792 20.3766C161.388 20.1273 160.58 19.8281 159.369 19.4791L158.46 19.1799C156.996 18.6813 155.936 18.1827 155.23 17.5843C154.574 16.986 154.22 16.0885 154.22 14.9417C154.22 13.5954 154.725 12.5483 155.684 11.9001C156.643 11.2021 158.208 10.853 160.277 10.853C161.085 10.853 161.842 10.9029 162.599 11.0525C163.356 11.1522 164.012 11.3018 164.568 11.5012V14.2436C164.012 14.0442 163.407 13.8447 162.7 13.745C161.993 13.6453 161.388 13.5455 160.782 13.5455C159.672 13.5455 158.864 13.6453 158.359 13.8447C157.854 14.0442 157.602 14.3932 157.602 14.8918C157.602 15.3406 157.804 15.6896 158.157 15.9389C158.561 16.1882 159.318 16.4874 160.429 16.8364L161.085 17.0358C162.246 17.3849 163.205 17.7838 163.811 18.1328C164.467 18.4818 164.921 18.9804 165.224 19.4791C165.527 20.0275 165.678 20.7256 165.678 21.5234C165.678 24.3156 163.659 25.7117 159.621 25.7117C158.763 25.7616 157.804 25.6619 156.895 25.5622Z" fill="white"/>
</svg>
