<svg width="166" height="28" viewBox="0 0 166 28" fill="none" xmlns="http://www.w3.org/2000/svg">
<path d="M16.4546 27.8647H6.99463L10.1479 21.1817H16.4546C18.4612 21.1817 20.0665 19.5959 20.0665 17.6703C20.0665 15.7447 18.4612 14.1589 16.4546 14.1589H13.4733L13.5306 13.989L10.4919 7.41925H16.5119C22.3025 7.41925 27.0038 12.0067 27.0038 17.6703C27.0038 23.3338 22.2452 27.8647 16.4546 27.8647Z" fill="#008D96"/>
<path d="M14.0466 14.1023L10.7213 21.1251L7.56795 27.8647H0.687995H0L0.687995 26.3922L6.53595 13.989L3.49731 7.41926L0 0H7.56795L11.0653 7.41926L14.1039 13.9324L14.0466 14.1023Z" fill="#F5AF15"/>
<path d="M35.6535 6.01645H45.1429C47.0609 6.01645 48.4743 6.4652 49.4333 7.36271C50.3923 8.26021 50.8466 9.55661 50.8466 11.202C50.8466 12.2491 50.6447 13.0968 50.2409 13.7948C49.8371 14.4929 49.2314 15.0414 48.5247 15.4403C49.5342 15.7394 50.2914 16.1882 50.8466 16.8862C51.4018 17.5843 51.6542 18.5317 51.6542 19.7782C51.6542 21.6729 51.1495 23.0691 50.0895 23.9666C49.08 24.9139 47.5657 25.3627 45.5467 25.3627H35.6535V6.01645ZM44.6886 14.2935C46.7581 14.2935 47.8181 13.3461 47.8181 11.4513C47.8181 10.4043 47.5657 9.65634 47.061 9.15772C46.5562 8.70897 45.6476 8.45966 44.3353 8.45966H38.9849V14.2935H44.6886ZM44.8905 23.0192C46.1019 23.0192 46.96 22.7699 47.5152 22.2713C48.0705 21.7727 48.3228 20.925 48.3228 19.7284C48.3228 18.6813 48.02 17.9333 47.4648 17.4846C46.9095 16.986 45.9505 16.7367 44.5372 16.7367H38.9849V23.0192H44.8905Z" fill="#008D96"/>
<path d="M55.7427 24.6148C54.7837 23.8668 54.2789 22.7699 54.2789 21.3738C54.2789 19.9776 54.7837 18.8308 55.7427 18.033C56.7018 17.2353 58.1655 16.7865 60.0836 16.7865H64.7273V16.1383C64.7273 15.4402 64.6264 14.8918 64.4245 14.4929C64.2226 14.094 63.8188 13.7948 63.2636 13.6452C62.7083 13.4458 61.9007 13.3959 60.8407 13.3959C59.1246 13.3959 57.5094 13.6452 56.0456 14.1438V11.7006C56.7522 11.4513 57.5598 11.2519 58.4684 11.0524C59.4274 10.9029 60.3865 10.8031 61.4464 10.8031C63.6169 10.8031 65.2321 11.2519 66.3426 12.0995C67.453 12.9472 67.9578 14.3433 67.9578 16.1882V25.4125H65.1311L64.9292 23.9666C64.3235 24.5649 63.5664 24.9638 62.7083 25.263C61.8502 25.5621 60.7398 25.7117 59.4779 25.7117C57.9636 25.7616 56.7522 25.3627 55.7427 24.6148ZM62.8597 22.9195C63.6169 22.6203 64.2226 22.1217 64.7273 21.5732V19.0801H60.1341C59.175 19.0801 58.4684 19.2796 58.0141 19.6286C57.5598 19.9776 57.3579 20.576 57.3579 21.3239C57.3579 22.0718 57.6103 22.5704 58.1151 22.9195C58.6198 23.2685 59.3265 23.4181 60.336 23.4181C61.2445 23.4181 62.1026 23.2186 62.8597 22.9195Z" fill="#008D96"/>
<path d="M71.592 5.11893H74.9234V16.8862L80.9804 11.1522H84.8166L78.9614 16.8862L85.1699 25.4125H81.6366L76.8414 18.6314L74.9234 20.4264V25.4125H71.592V5.11893Z" fill="#008D96"/>
<path d="M88.9051 24.3156C87.9965 23.3682 87.4918 21.9721 87.4918 20.1771V11.1522H90.8231V20.1771C90.8231 21.2242 91.0755 22.022 91.6307 22.5206C92.1355 23.0192 92.9936 23.2685 94.0536 23.2685C94.8612 23.2685 95.5678 23.1189 96.2745 22.8197C96.9811 22.5206 97.5868 22.1217 98.0916 21.5732V11.1023H101.372V25.4125H98.344L98.1926 23.9167C96.6783 25.1134 94.8612 25.7117 92.8422 25.7117C91.126 25.7616 89.8136 25.263 88.9051 24.3156Z" fill="#008D96"/>
<path d="M105.31 6.01645H113.285C116.212 6.01645 118.383 6.81423 119.796 8.35994C121.159 9.90564 121.866 12.3987 121.866 15.889C121.866 19.2297 121.159 21.6231 119.796 23.1688C118.433 24.7145 116.263 25.4624 113.285 25.4624H105.31V6.01645ZM112.729 22.9195C114.092 22.9195 115.203 22.72 116.01 22.3212C116.818 21.9223 117.474 21.2242 117.878 20.1771C118.282 19.13 118.484 17.684 118.484 15.8392C118.484 13.9444 118.282 12.4984 117.928 11.4514C117.525 10.4043 116.919 9.65634 116.111 9.25745C115.304 8.80869 114.143 8.60925 112.729 8.60925H108.59V22.9195H112.729Z" fill="#008D96"/>
<path d="M125.651 23.8668C124.288 22.6203 123.582 20.7256 123.582 18.2325C123.582 15.889 124.187 14.0441 125.399 12.7477C126.61 11.4513 128.377 10.8031 130.749 10.8031C132.869 10.8031 134.535 11.3516 135.645 12.4486C136.806 13.5455 137.361 15.0414 137.361 16.8862V19.5289H126.762C126.913 20.8752 127.418 21.8225 128.276 22.371C129.134 22.9195 130.446 23.1688 132.213 23.1688C132.97 23.1688 133.677 23.1189 134.434 22.9693C135.191 22.8197 135.898 22.6702 136.453 22.4209V24.8142C135.191 25.3627 133.525 25.6619 131.506 25.6619C128.983 25.7616 127.014 25.1134 125.651 23.8668ZM134.434 17.4347V16.4375C134.434 15.3904 134.131 14.6425 133.576 14.094C133.021 13.5455 132.112 13.2962 130.85 13.2962C129.336 13.2962 128.276 13.5954 127.67 14.2436C127.064 14.8918 126.762 15.9389 126.762 17.4347H134.434Z" fill="#008D96"/>
<path d="M138.472 11.1522H141.904L145.942 22.2713L149.98 11.1522H153.413L147.709 25.4624H144.125L138.472 11.1522Z" fill="#008D96"/>
<path d="M156.895 25.5621C155.987 25.4125 155.23 25.263 154.624 25.0137V22.2214C155.28 22.4707 156.037 22.6702 156.845 22.8198C157.653 22.9693 158.46 23.0192 159.268 23.0192C160.429 23.0192 161.287 22.9195 161.741 22.72C162.195 22.5206 162.448 22.1217 162.448 21.5234C162.448 21.0247 162.246 20.6258 161.792 20.3765C161.388 20.1272 160.58 19.8281 159.369 19.479L158.46 19.1799C156.996 18.6812 155.936 18.1826 155.23 17.5843C154.574 16.986 154.22 16.0885 154.22 14.9416C154.22 13.5954 154.725 12.5483 155.684 11.9001C156.643 11.202 158.208 10.853 160.277 10.853C161.085 10.853 161.842 10.9029 162.599 11.0524C163.356 11.1522 164.012 11.3018 164.568 11.5012V14.2436C164.012 14.0441 163.407 13.8447 162.7 13.745C161.993 13.6452 161.388 13.5455 160.782 13.5455C159.672 13.5455 158.864 13.6452 158.359 13.8447C157.854 14.0441 157.602 14.3932 157.602 14.8918C157.602 15.3405 157.804 15.6896 158.157 15.9389C158.561 16.1882 159.318 16.4873 160.429 16.8364L161.085 17.0358C162.246 17.3848 163.205 17.7837 163.811 18.1328C164.467 18.4818 164.921 18.9804 165.224 19.479C165.527 20.0275 165.678 20.7256 165.678 21.5234C165.678 24.3156 163.659 25.7117 159.621 25.7117C158.763 25.7616 157.804 25.6619 156.895 25.5621Z" fill="#008D96"/>
</svg>
